<svg xmlns="http://www.w3.org/2000/svg" xmlns:xlink="http://www.w3.org/1999/xlink" version="1.1" x="0px" y="0px" viewBox="0 0 100 125" style="enable-background:new 0 0 100 100;" xml:space="preserve"><g><path d="M82.1,67.3c-2.5-1.7-6.6-7.2-6.6-25.1c0-16.8-10.2-23.5-17.7-26.3c0.1-0.6,0.2-1.3,0.2-1.9c0-5-4-9-9-9s-9,4-9,9   c0,0.6,0.1,1.3,0.2,1.9c-7.5,2.7-17.7,9.5-17.7,26.3c0,18-4.1,23.5-6.6,25.1c-2.1,1.4-3.3,3.8-3.3,6.2c0,4.2,3.4,7.5,7.5,7.5h16.7   C38,86.8,43.1,91,49,91s11-4.2,12.2-9.9h16.7c4.1,0,7.5-3.4,7.5-7.5C85.4,71.1,84.2,68.7,82.1,67.3z M49,9c2.8,0,5,2.2,5,5   c0,0.3,0,0.5-0.1,0.8c-4.1-0.9-7.9-0.4-9.9,0c0-0.3-0.1-0.5-0.1-0.8C44,11.2,46.2,9,49,9z M26.5,42.2c0-15.2,9.4-21,17.2-23.2   l0.1,0c0,0,2.2-0.7,5.3-0.7c1.6,0,3.3,0.2,5.2,0.8l0.1,0c7.8,2.2,17.2,8,17.2,23.2c0,11.6,1.6,19.9,4.9,24.8H21.6   C24.8,62,26.5,53.7,26.5,42.2z M49,87c-3.7,0-7-2.5-8.1-5.9h16.2C56,84.5,52.7,87,49,87z M77.9,77.1H20.1c-1.9,0-3.5-1.6-3.5-3.5   c0-1,0.4-1.9,1.2-2.6h62.6c0.7,0.7,1.2,1.6,1.2,2.6C81.4,75.5,79.8,77.1,77.9,77.1z"/><path d="M40,24.3c-0.3,0.2-7.9,4.6-9,12.5c-0.2,1.1,0.6,2.1,1.7,2.3c0.1,0,0.2,0,0.3,0c1,0,1.8-0.7,2-1.7c0.8-5.9,6.9-9.5,7-9.5   c1-0.5,1.3-1.8,0.7-2.7C42.2,24,41,23.7,40,24.3z"/></g><text x="0" y="115" fill="#000000" font-size="5px" font-weight="bold" font-family="'Helvetica Neue', Helvetica, Arial-Unicode, Arial, Sans-serif">Created by Icon Depot</text><text x="0" y="120" fill="#000000" font-size="5px" font-weight="bold" font-family="'Helvetica Neue', Helvetica, Arial-Unicode, Arial, Sans-serif">from the Noun Project</text></svg>